<svg width="33" height="27" viewBox="0 0 33 27" fill="none" xmlns="http://www.w3.org/2000/svg">
<path d="M22 7.25V4.125C22 3.2962 21.6746 2.50134 21.0955 1.91529C20.5163 1.32924 19.7308 1 18.9118 1H4.08824C3.26918 1 2.48368 1.32924 1.90452 1.91529C1.32537 2.50134 1 3.2962 1 4.125V22.875C1 23.7038 1.32537 24.4987 1.90452 25.0847C2.48368 25.6708 3.26918 26 4.08824 26H18.9118C19.7308 26 20.5163 25.6708 21.0955 25.0847C21.6746 24.4987 22 23.7038 22 22.875V19.75" stroke="white" stroke-width="2" stroke-linecap="round" stroke-linejoin="round"/>
<path d="M26 8L32 14L26 20" stroke="white" stroke-width="2" stroke-linecap="round" stroke-linejoin="round"/>
<path d="M12 14H31" stroke="white" stroke-width="2" stroke-linecap="round" stroke-linejoin="round"/>
</svg>
